<svg xmlns="http://www.w3.org/2000/svg" width="24" height="24" viewBox="0 0 24 24" fill="none">
	<path d="M16.853 16.8537C16.6576 17.0491 16.3414 17.0491 16.1458 16.8537L11.9999 12.7069L7.85301 16.8537C7.6576 17.0491 7.34145 17.0491 7.14582 16.8537C6.95042 16.6583 6.95042 16.3422 7.14582 16.1466L11.2936 12.0006L7.14645 7.85374C6.95104 7.65834 6.95104 7.34218 7.14645 7.14655C7.34185 6.95115 7.65801 6.95115 7.85363 7.14655L11.9999 11.2944L16.1468 7.14749C16.3422 6.95209 16.6583 6.95209 16.8539 7.14749C17.0494 7.3429 17.0494 7.65905 16.8539 7.85468L12.7061 12.0006L16.853 16.1475C17.0499 16.3412 17.0499 16.66 16.853 16.8537Z" fill="#475467" />
</svg>
