<svg xmlns="http://www.w3.org/2000/svg" width="27" height="24" viewBox="0 0 27 24" fill="none">
	<g clip-path="url(#clip0_71_16452)">
		<path d="M25.1303 0.0253906L15.0498 7.51195L16.9143 3.09484L25.1303 0.0253906Z" fill="#E2761B" stroke="#E2761B" stroke-linecap="round" stroke-linejoin="round" />
		<path d="M1.85938 0.0253906L11.8588 7.5828L10.0855 3.09484L1.85938 0.0253906Z" fill="#E4761B" stroke="#E4761B" stroke-linecap="round" stroke-linejoin="round" />
		<path d="M21.503 17.3799L18.8184 21.4932L24.5627 23.0733L26.2142 17.4711L21.503 17.3799Z" fill="#E4761B" stroke="#E4761B" stroke-linecap="round" stroke-linejoin="round" />
		<path d="M0.795898 17.4711L2.43715 23.0733L8.18153 21.4932L5.49691 17.3799L0.795898 17.4711Z" fill="#E4761B" stroke="#E4761B" stroke-linecap="round" stroke-linejoin="round" />
		<path d="M7.85685 10.4299L6.25586 12.8515L11.9595 13.1048L11.7571 6.97559L7.85685 10.4299Z" fill="#E4761B" stroke="#E4761B" stroke-linecap="round" stroke-linejoin="round" />
		<path d="M19.1325 10.4294L15.1818 6.9043L15.0498 13.1044L20.7437 12.851L19.1325 10.4294Z" fill="#E4761B" stroke="#E4761B" stroke-linecap="round" stroke-linejoin="round" />
		<path d="M8.18164 21.4926L11.6058 19.8207L8.64751 17.5107L8.18164 21.4926Z" fill="#E4761B" stroke="#E4761B" stroke-linecap="round" stroke-linejoin="round" />
		<path d="M15.3838 19.8207L18.8182 21.4926L18.3421 17.5107L15.3838 19.8207Z" fill="#E4761B" stroke="#E4761B" stroke-linecap="round" stroke-linejoin="round" />
		<path d="M18.8182 21.4931L15.3838 19.8213L15.6575 22.0604L15.6269 23.0024L18.8182 21.4931Z" fill="#D7C1B3" stroke="#D7C1B3" stroke-linecap="round" stroke-linejoin="round" />
		<path d="M8.18164 21.4931L11.3729 23.0024L11.3525 22.0604L11.6058 19.8213L8.18164 21.4931Z" fill="#D7C1B3" stroke="#D7C1B3" stroke-linecap="round" stroke-linejoin="round" />
		<path d="M11.4233 16.0326L8.56641 15.1916L10.5823 14.2695L11.4233 16.0326Z" fill="#233447" stroke="#233447" stroke-linecap="round" stroke-linejoin="round" />
		<path d="M15.5664 16.0326L16.4074 14.2695L18.4335 15.1916L15.5664 16.0326Z" fill="#233447" stroke="#233447" stroke-linecap="round" stroke-linejoin="round" />
		<path d="M8.18169 21.4932L8.66795 17.3799L5.49707 17.4711L8.18169 21.4932Z" fill="#CD6116" stroke="#CD6116" stroke-linecap="round" stroke-linejoin="round" />
		<path d="M18.332 17.3799L18.8183 21.4932L21.5029 17.4711L18.332 17.3799Z" fill="#CD6116" stroke="#CD6116" stroke-linecap="round" stroke-linejoin="round" />
		<path d="M20.7437 12.8516L15.0498 13.1049L15.5768 16.0326L16.4179 14.2696L18.4439 15.1916L20.7437 12.8516Z" fill="#CD6116" stroke="#CD6116" stroke-linecap="round" stroke-linejoin="round" />
		<path d="M8.56585 15.1916L10.5919 14.2696L11.4227 16.0326L11.9595 13.1049L6.25586 12.8516L8.56585 15.1916Z" fill="#CD6116" stroke="#CD6116" stroke-linecap="round" stroke-linejoin="round" />
		<path d="M6.25586 12.8516L8.64689 17.5113L8.56585 15.1916L6.25586 12.8516Z" fill="#E4751F" stroke="#E4751F" stroke-linecap="round" stroke-linejoin="round" />
		<path d="M18.4432 15.1916L18.3418 17.5113L20.743 12.8516L18.4432 15.1916Z" fill="#E4751F" stroke="#E4751F" stroke-linecap="round" stroke-linejoin="round" />
		<path d="M11.9596 13.1045L11.4229 16.0322L12.0916 19.4865L12.2435 14.9379L11.9596 13.1045Z" fill="#E4751F" stroke="#E4751F" stroke-linecap="round" stroke-linejoin="round" />
		<path d="M15.0496 13.1045L14.7764 14.9277L14.8977 19.4865L15.5766 16.0322L15.0496 13.1045Z" fill="#E4751F" stroke="#E4751F" stroke-linecap="round" stroke-linejoin="round" />
		<path d="M15.5764 16.0324L14.8975 19.4867L15.3837 19.8211L18.3421 17.5111L18.4435 15.1914L15.5764 16.0324Z" fill="#F6851B" stroke="#F6851B" stroke-linecap="round" stroke-linejoin="round" />
		<path d="M8.56641 15.1914L8.64745 17.5111L11.6058 19.8211L12.092 19.4867L11.4233 16.0324L8.56641 15.1914Z" fill="#F6851B" stroke="#F6851B" stroke-linecap="round" stroke-linejoin="round" />
		<path d="M15.6274 23.0024L15.658 22.0605L15.4047 21.8372H11.5855L11.3525 22.0605L11.3729 23.0024L8.18164 21.4932L9.29586 22.4045L11.5549 23.9749H15.4353L17.7045 22.4045L18.8187 21.4932L15.6274 23.0024Z" fill="#C0AD9E" stroke="#C0AD9E" stroke-linecap="round" stroke-linejoin="round" />
		<path d="M15.3843 19.8207L14.8981 19.4863H12.0921L11.6059 19.8207L11.3525 22.0598L11.5855 21.8366H15.4047L15.658 22.0598L15.3843 19.8207Z" fill="#161616" stroke="#161616" stroke-linecap="round" stroke-linejoin="round" />
		<path d="M25.5555 7.99821L26.4164 3.865L25.1299 0.0253906L15.3838 7.25862L19.1322 10.4295L24.4306 11.9795L25.6059 10.612L25.0993 10.2475L25.9097 9.50795L25.2818 9.0217L26.0922 8.40342L25.5555 7.99821Z" fill="#763D16" stroke="#763D16" stroke-linecap="round" stroke-linejoin="round" />
		<path d="M0.583008 3.865L1.4439 7.99821L0.896986 8.40342L1.70742 9.0217L1.08966 9.50795L1.90009 10.2475L1.39344 10.612L2.55863 11.9795L7.85702 10.4295L11.6054 7.25862L1.85931 0.0253906L0.583008 3.865Z" fill="#763D16" stroke="#763D16" stroke-linecap="round" stroke-linejoin="round" />
		<path d="M24.4302 11.9797L19.1318 10.4297L20.743 12.8513L18.3418 17.511L21.5025 17.4708H26.2137L24.4302 11.9797Z" fill="#F6851B" stroke="#F6851B" stroke-linecap="round" stroke-linejoin="round" />
		<path d="M7.85736 10.4297L2.55897 11.9797L0.795898 17.4708H5.49691L8.64741 17.511L6.25638 12.8513L7.85736 10.4297Z" fill="#F6851B" stroke="#F6851B" stroke-linecap="round" stroke-linejoin="round" />
		<path d="M15.05 13.1043L15.3843 7.25851L16.9247 3.09473H10.0859L11.6059 7.25851L11.9601 13.1043L12.0819 14.9479L12.0921 19.4864H14.8981L14.9185 14.9479L15.05 13.1043Z" fill="#F6851B" stroke="#F6851B" stroke-linecap="round" stroke-linejoin="round" />
	</g>
	<defs>
		<clipPath id="clip0_71_16452">
			<rect width="25.8844" height="24" fill="white" transform="translate(0.557617)" />
		</clipPath>
	</defs>
</svg>
