<svg width="20" height="20" viewBox="0 0 20 20" fill="none" xmlns="http://www.w3.org/2000/svg">
<g id="vuesax/bold/lamp-on">
<g id="lamp-on">
<path id="Vector" d="M16.0083 5.30001C15.1417 3.55001 13.4667 2.25834 11.525 1.83334C9.49168 1.38334 7.40835 1.86668 5.81668 3.15001C4.21668 4.42501 3.30835 6.33334 3.30835 8.37501C3.30835 10.5333 4.60002 12.7917 6.55002 14.1V14.7917C6.54168 15.025 6.53335 15.3833 6.81668 15.675C7.10835 15.975 7.54168 16.0083 7.88335 16.0083H12.1583C12.6083 16.0083 12.95 15.8833 13.1833 15.65C13.5 15.325 13.4917 14.9083 13.4833 14.6833V14.1C16.0667 12.3583 17.6917 8.68334 16.0083 5.30001Z" fill="#1D2939"/>
<path id="Vector_2" d="M12.7167 18.3333C12.6667 18.3333 12.6084 18.325 12.5584 18.3083C10.8834 17.8333 9.12505 17.8333 7.45005 18.3083C7.14171 18.3916 6.81671 18.2166 6.73338 17.9083C6.64171 17.6 6.82505 17.275 7.13338 17.1916C9.01671 16.6583 11 16.6583 12.8834 17.1916C13.1917 17.2833 13.375 17.6 13.2834 17.9083C13.2 18.1666 12.9667 18.3333 12.7167 18.3333Z" fill="#1D2939"/>
</g>
</g>
</svg>
