<svg width="20" height="20" viewBox="0 0 20 20" fill="none" xmlns="http://www.w3.org/2000/svg">
	<g clip-path="url(#clip0_1436_3085)">
		<path d="M16 0.5H4C2.067 0.5 0.5 2.067 0.5 4V16C0.5 17.933 2.067 19.5 4 19.5H16C17.933 19.5 19.5 17.933 19.5 16V4C19.5 2.067 17.933 0.5 16 0.5Z" fill="white" />
		<path d="M14 7L8.5 12.5L6 10" stroke="#7F56D9" stroke-width="1.5" stroke-linecap="round" stroke-linejoin="round" />
		<path d="M16 0.5H4C2.067 0.5 0.5 2.067 0.5 4V16C0.5 17.933 2.067 19.5 4 19.5H16C17.933 19.5 19.5 17.933 19.5 16V4C19.5 2.067 17.933 0.5 16 0.5Z" stroke="#7F56D9" />
	</g>
	<defs>
		<clipPath id="clip0_1436_3085">
			<rect width="20" height="20" fill="white" />
		</clipPath>
	</defs>
</svg>
